<svg xmlns="http://www.w3.org/2000/svg" viewBox="0 0 1320 340" role="img" aria-labelledby="title desc">
      <title id="title">PolicyProof logo</title>
      <desc id="desc">PolicyProof wordmark with a geometric policy and evidence mark.</desc>

      <g transform="translate(32 42) scale(1.15)">

    <g id="policyproof-mark">
      <!-- document/policy stem -->
      <path d="M48 60 H70 V196 H96 V218 H58 C52.477 218 48 213.523 48 208 Z"
            fill="#18222C"/>
      <!-- P loop / control path -->
      <path d="M82 38 H142
               C183 38 210 63 210 101
               C210 139 183 164 142 164
               H104 V138 H140
               C164 138 179 124 179 101
               C179 78 164 64 140 64
               H82 Z"
            fill="#18222C"/>
      <!-- subtle inner anchor -->
      <rect x="82" y="138" width="28" height="34" rx="2" fill="#18222C"/>
      <!-- restrained document fold -->
      <path d="M48 60 L70 38 L70 60 Z" fill="#4B837D"/>
      <!-- evidence/control points -->
      <line x1="108" y1="112" x2="108" y2="148"
            stroke="#4B837D" stroke-width="5" stroke-linecap="round"/>
      <circle cx="108" cy="105" r="9" fill="#4B837D"/>
      <circle cx="88" cy="205" r="8" fill="#4B837D"/>
    </g>

      </g>
      <path d="M333.18359375 228.0H347.099609375V188.5224609375H370.6103515625C396.025390625 188.5224609375 407.744140625 173.068359375 407.744140625 153.5859375C407.744140625 134.1767578125 396.025390625 118.869140625 370.537109375 118.869140625H333.18359375ZM347.099609375 176.291015625V131.1005859375H369.8046875C387.236328125 131.1005859375 393.9013671875 140.6953125 393.9013671875 153.5859375C393.9013671875 166.5498046875 387.236328125 176.291015625 369.951171875 176.291015625Z" fill="#18222C"/>
<path d="M460.6982421875 229.7578125C483.037109375 229.7578125 498.125 212.8388671875 498.125 187.5703125C498.125 161.935546875 483.037109375 145.08984375 460.6982421875 145.08984375C438.4326171875 145.08984375 423.41796875 161.935546875 423.41796875 187.5703125C423.41796875 212.8388671875 438.4326171875 229.7578125 460.6982421875 229.7578125ZM460.6982421875 217.9658203125C444.365234375 217.9658203125 436.8212890625 203.68359375 436.8212890625 187.5703125C436.8212890625 171.2373046875 444.365234375 156.8818359375 460.6982421875 156.8818359375C477.2509765625 156.8818359375 484.794921875 171.310546875 484.794921875 187.5703125C484.794921875 203.68359375 477.2509765625 217.9658203125 460.6982421875 217.9658203125Z" fill="#18222C"/>
<path d="M530.498046875 118.869140625H517.314453125V228.0H530.498046875Z" fill="#18222C"/>
<path d="M553.642578125 228.0H566.826171875V146.115234375H553.642578125ZM560.3076171875 132.7119140625C565.361328125 132.7119140625 569.5361328125 128.830078125 569.5361328125 123.99609375C569.5361328125 119.162109375 565.361328125 115.2802734375 560.3076171875 115.2802734375C555.3271484375 115.2802734375 551.15234375 119.162109375 551.15234375 123.99609375C551.15234375 128.830078125 555.3271484375 132.7119140625 560.3076171875 132.7119140625Z" fill="#18222C"/>
<path d="M623.2958984375 229.7578125C639.3359375 229.7578125 652.373046875 221.0419921875 656.767578125 206.466796875L644.169921875 202.8779296875C641.7529296875 211.740234375 634.2822265625 217.9658203125 623.2958984375 217.9658203125C606.962890625 217.9658203125 599.4189453125 203.68359375 599.4189453125 187.5703125C599.4189453125 171.2373046875 606.962890625 156.8818359375 623.2958984375 156.8818359375C634.0625 156.8818359375 641.38671875 162.8876953125 643.8037109375 171.310546875L656.474609375 167.7216796875C652.0068359375 153.439453125 639.1162109375 145.08984375 623.2958984375 145.08984375C601.0302734375 145.08984375 586.015625 161.935546875 586.015625 187.5703125C586.015625 212.8388671875 601.0302734375 229.7578125 623.2958984375 229.7578125Z" fill="#18222C"/>
<path d="M674.345703125 257.6630859375C675.7373046875 258.322265625 679.326171875 259.201171875 684.013671875 259.201171875C695.5859375 259.201171875 703.49609375 253.2685546875 708.4765625 240.2314453125L744.4384765625 146.115234375H730.0830078125L712.5048828125 194.6748046875C709.94140625 201.779296875 708.037109375 208.8837890625 706.2060546875 215.6953125C704.3017578125 208.8837890625 702.470703125 201.8525390625 699.9072265625 194.6748046875L682.4755859375 146.115234375H668.046875L699.3212890625 228.439453125L696.9775390625 235.2509765625C692.94921875 246.9697265625 687.1630859375 248.7275390625 679.1064453125 246.603515625L677.71484375 246.2373046875Z" fill="#18222C"/>
      <path d="M757.5771484375 228.0H771.4931640625V188.5224609375H795.00390625C820.4189453125 188.5224609375 832.1376953125 173.068359375 832.1376953125 153.5859375C832.1376953125 134.1767578125 820.4189453125 118.869140625 794.9306640625 118.869140625H757.5771484375ZM771.4931640625 176.291015625V131.1005859375H794.1982421875C811.6298828125 131.1005859375 818.294921875 140.6953125 818.294921875 153.5859375C818.294921875 166.5498046875 811.6298828125 176.291015625 794.3447265625 176.291015625Z" fill="#4B837D"/>
<path d="M851.7666015625 228.0H864.9501953125V176.73046875C864.9501953125 165.6708984375 873.5927734375 157.6875 885.384765625 157.6875C888.900390625 157.6875 892.4892578125 158.2734375 893.294921875 158.419921875V145.1630859375C891.7568359375 145.08984375 888.5341796875 144.943359375 886.6298828125 144.943359375C876.888671875 144.943359375 868.392578125 150.4365234375 865.3896484375 158.712890625H864.5107421875V146.115234375H851.7666015625Z" fill="#4B837D"/>
<path d="M941.5615234375 229.7578125C963.900390625 229.7578125 978.98828125 212.8388671875 978.98828125 187.5703125C978.98828125 161.935546875 963.900390625 145.08984375 941.5615234375 145.08984375C919.2958984375 145.08984375 904.28125 161.935546875 904.28125 187.5703125C904.28125 212.8388671875 919.2958984375 229.7578125 941.5615234375 229.7578125ZM941.5615234375 217.9658203125C925.228515625 217.9658203125 917.6845703125 203.68359375 917.6845703125 187.5703125C917.6845703125 171.2373046875 925.228515625 156.8818359375 941.5615234375 156.8818359375C958.1142578125 156.8818359375 965.658203125 171.310546875 965.658203125 187.5703125C965.658203125 203.68359375 958.1142578125 217.9658203125 941.5615234375 217.9658203125Z" fill="#4B837D"/>
<path d="M1031.5029296875 229.7578125C1053.841796875 229.7578125 1068.9296875 212.8388671875 1068.9296875 187.5703125C1068.9296875 161.935546875 1053.841796875 145.08984375 1031.5029296875 145.08984375C1009.2373046875 145.08984375 994.22265625 161.935546875 994.22265625 187.5703125C994.22265625 212.8388671875 1009.2373046875 229.7578125 1031.5029296875 229.7578125ZM1031.5029296875 217.9658203125C1015.169921875 217.9658203125 1007.6259765625 203.68359375 1007.6259765625 187.5703125C1007.6259765625 171.2373046875 1015.169921875 156.8818359375 1031.5029296875 156.8818359375C1048.0556640625 156.8818359375 1055.599609375 171.310546875 1055.599609375 187.5703125C1055.599609375 203.68359375 1048.0556640625 217.9658203125 1031.5029296875 217.9658203125Z" fill="#4B837D"/>
<path d="M1126.205078125 146.115234375H1107.30859375V138.1318359375C1107.30859375 130.2216796875 1110.82421875 125.9736328125 1118.9541015625 125.9736328125C1122.6162109375 125.9736328125 1124.6669921875 126.779296875 1126.05859375 127.21875L1129.720703125 115.939453125C1127.7431640625 115.060546875 1123.6416015625 113.7421875 1117.416015625 113.7421875C1105.4775390625 113.7421875 1094.125 120.9931640625 1094.125 135.2021484375V146.115234375H1078.01171875V157.39453125H1094.125V228.0H1107.30859375V157.39453125H1126.205078125Z" fill="#4B837D"/>
    </svg>
